/* XPM */
static char * max_fo_xpm[] = {
"22 22 7 1",
"´	c #404040",
"$	c #FFFD00",
";	c #EBA900",
" 	c #000000",
"%	c #FFCB00",
".	c #D09500",
"`	c #B58200",
"´´´´´´´´´´´´´´´´´´´´´´",
"$$$$$$$$$$$$$$$$$$$$; ",
"%%%%%%%%%%%%%%%%%%%%; ",
"%%%%%%%%%%%%%%%%%%%%; ",
"%%%%......%%%%%%%%%%; ",
"%%%.$$$$$%.$%%%%%%%%; ",
"%%%.$%$%%%`$%%%%%%%%; ",
"%%%.$$%%%%`$....%%%%; ",
"%%%.$%%%%.`$$$$%.$%%; ",
"%%%.$%%%.%`$$%%;`$%%; ",
"%%%.%%%.%`.$%%%;`$%%; ",
"%%%%.````.%$%%;;`$%%; ",
"%%%%$$$$$$$%%;%;`$%%; ",
"%%%%%%.$$%%%;%;;`$%%; ",
"%%%%%%.$%%%;%;;.`$%%; ",
"%%%%%%.$%%;%;;.;`$%%; ",
"%%%%%%.%;;;;;.;`.$%%; ",
"%%%%%%%.```````.%$%%; ",
"%%%%%%%$$$$$$$$$$%%%; ",
"%%%%%%%%%%%%%%%%%%%%; ",
"%%%%%%%%%%%%%%%%%%%%; ",
"%%%%%%%%%%%%%%%%%%%%; "};
